<svg width="180" height="48" fill="none" xmlns="http://www.w3.org/2000/svg"><path d="M54.92 35.381H48.1l-1.64 4.835h-2.892l6.46-17.885h2.994l6.46 17.885h-2.935L54.92 35.38zm-6.114-2.23h5.41l-2.662-7.842h-.072l-2.676 7.842zm24.618.547c0 4.057-2.172 6.662-5.438 6.662-1.857 0-3.339-.835-4.101-2.274h-.058v6.46h-2.676V27.18h2.59v2.172h.043c.748-1.395 2.331-2.302 4.158-2.302 3.295-.014 5.483 2.605 5.483 6.648zm-2.762 0c0-2.633-1.367-4.374-3.439-4.374-2.043 0-3.424 1.77-3.424 4.374 0 2.633 1.38 4.388 3.424 4.388 2.086 0 3.439-1.726 3.439-4.388zm17.093 0c0 4.057-2.172 6.662-5.438 6.662-1.857 0-3.339-.835-4.101-2.274h-.058v6.46h-2.676V27.18h2.59v2.172h.043c.748-1.395 2.331-2.302 4.158-2.302 3.295-.014 5.482 2.605 5.482 6.648zm-2.748 0c0-2.633-1.367-4.374-3.439-4.374-2.043 0-3.424 1.77-3.424 4.374 0 2.633 1.381 4.388 3.424 4.388 2.072 0 3.44-1.726 3.44-4.388zm4.907-11.367h2.676v17.885h-2.676V22.33zm16.604 14.058c-.36 2.36-2.662 3.985-5.612 3.985-3.798 0-6.143-2.547-6.143-6.619 0-4.086 2.374-6.748 6.028-6.748 3.612 0 5.871 2.475 5.871 6.432v.92h-9.209v.159c0 2.23 1.396 3.698 3.511 3.698 1.482 0 2.648-.705 3.007-1.828h2.547zm-9.05-3.9h6.518c-.058-2-1.339-3.31-3.195-3.31-1.841 0-3.18 1.339-3.323 3.31zm32.287 7.727V27.05h-.086l-5.396 13.022h-2.057l-5.41-13.022h-.087v13.166h-2.532V22.33h3.209l5.784 14.115h.101l5.769-14.115h3.223v17.885h-2.518zm16.792 0h-2.561V37.97h-.058c-.748 1.569-2.043 2.389-4.043 2.389-2.835 0-4.576-1.828-4.576-4.82v-8.36h2.677v7.842c0 1.985.935 3.036 2.791 3.036 1.928 0 3.094-1.339 3.094-3.367V27.18h2.676v13.036zm7.611-13.18c2.892 0 4.964 1.597 5.022 3.9h-2.518c-.115-1.152-1.094-1.857-2.576-1.857-1.453 0-2.417.676-2.417 1.684 0 .777.648 1.295 2 1.64l2.187.504c2.633.633 3.612 1.597 3.612 3.51 0 2.36-2.231 3.971-5.41 3.971-3.08 0-5.137-1.568-5.339-3.956h2.648c.187 1.252 1.194 1.928 2.82 1.928 1.597 0 2.604-.662 2.604-1.698 0-.806-.489-1.237-1.856-1.583l-2.331-.575c-2.359-.576-3.539-1.77-3.539-3.583-.015-2.317 2.057-3.885 5.093-3.885zm7.396-3.295c0-.849.691-1.54 1.554-1.54.863 0 1.568.677 1.568 1.54 0 .849-.69 1.525-1.568 1.525-.849 0-1.554-.676-1.554-1.525zm.216 3.439h2.676v13.036h-2.676V27.18zm14.201 4.49c-.23-1.382-1.309-2.404-3.079-2.404-2.057 0-3.424 1.727-3.424 4.432 0 2.777 1.381 4.446 3.438 4.446 1.655 0 2.749-.835 3.051-2.345h2.575c-.302 2.733-2.489 4.575-5.654 4.575-3.713 0-6.144-2.547-6.144-6.676 0-4.058 2.431-6.676 6.115-6.676 3.352 0 5.424 2.1 5.655 4.647h-2.533zM49.856 16.848h-5.439v-8.72h1.353v7.468h4.086v1.252zm1.569-8.532c0-.447.36-.792.834-.792.49 0 .834.345.834.792 0 .446-.36.79-.834.79-.475 0-.834-.33-.834-.79zm.2 1.956h1.296v6.576h-1.295v-6.576zm5.785-.13c1.482 0 2.446.691 2.576 1.843h-1.238c-.115-.49-.59-.792-1.323-.792-.72 0-1.267.346-1.267.864 0 .388.331.647 1.05.805l1.094.26c1.252.287 1.842.834 1.842 1.798 0 1.237-1.151 2.072-2.72 2.072-1.568 0-2.59-.705-2.705-1.87h1.295c.159.503.648.82 1.44.82.805 0 1.38-.36 1.38-.893 0-.388-.302-.647-.964-.805l-1.15-.26c-1.252-.301-1.828-.863-1.828-1.841-.043-1.18 1.022-2 2.518-2zm6.144-1.51v1.67h1.424v1.093h-1.424v3.381c0 .69.288.993.935.993.202 0 .317-.015.49-.029v1.08c-.216.042-.461.071-.706.071-1.438 0-2.014-.503-2.014-1.77v-3.726h-1.05v-1.094h1.05V8.633h1.295zm8.619 6.432c-.302 1.18-1.353 1.899-2.85 1.899-1.884 0-3.035-1.295-3.035-3.396 0-2.1 1.18-3.438 3.036-3.438 1.827 0 2.935 1.251 2.935 3.309v.475h-4.647v.072c.043 1.15.719 1.884 1.755 1.884.791 0 1.324-.287 1.568-.79h1.238v-.015zm-4.561-2.115h3.323c-.029-1.036-.662-1.698-1.611-1.698-.95 0-1.64.676-1.712 1.698zm6.374-2.677h1.251v1.05h.101c.317-.733.964-1.165 1.957-1.165 1.468 0 2.273.878 2.273 2.446v4.26h-1.295v-3.958c0-1.05-.46-1.582-1.424-1.582s-1.568.633-1.568 1.669v3.841h-1.295v-6.56zm10.82 3.281c0-2.115 1.18-3.41 3.108-3.41 1.913 0 3.093 1.295 3.093 3.41 0 2.13-1.18 3.424-3.093 3.424-1.928-.014-3.108-1.295-3.108-3.424zm4.863 0c0-1.425-.647-2.259-1.77-2.259-1.136 0-1.77.835-1.77 2.259 0 1.439.634 2.259 1.77 2.259 1.137 0 1.77-.835 1.77-2.259zm3.08-3.28H94v1.05h.1c.317-.734.965-1.166 1.958-1.166 1.467 0 2.273.878 2.273 2.446v4.26h-1.295v-3.958c0-1.05-.46-1.582-1.424-1.582-.965 0-1.569.633-1.569 1.669v3.841h-1.295v-6.56z" fill="#000"/><path fill-rule="evenodd" clip-rule="evenodd" d="M36.201 17.324v-1.295c0-.36 0-.734-.014-1.094a14.554 14.554 0 0 0-.216-2.374 7.872 7.872 0 0 0-.748-2.259 7.673 7.673 0 0 0-1.396-1.928A7.424 7.424 0 0 0 31.9 6.978a7.872 7.872 0 0 0-2.259-.748c-.791-.144-1.582-.187-2.374-.216-.36 0-.72-.014-1.093-.014H10.029c-.36 0-.734 0-1.094.014-.791.03-1.597.072-2.374.216a7.729 7.729 0 0 0-2.259.748c-.72.36-1.367.835-1.928 1.396a7.425 7.425 0 0 0-1.396 1.928 7.728 7.728 0 0 0-.748 2.26c-.144.79-.187 1.582-.216 2.373 0 .36-.014.734-.014 1.094v16.144c0 .36 0 .733.014 1.093.015.792.072 1.597.216 2.374.144.792.374 1.54.748 2.26.36.704.835 1.366 1.396 1.927a7.424 7.424 0 0 0 1.928 1.396c.72.374 1.453.619 2.26.748.79.144 1.582.187 2.373.216.36.014.734.014 1.094.014h16.144c.36 0 .734 0 1.093-.014a14.555 14.555 0 0 0 2.374-.216 7.872 7.872 0 0 0 2.26-.748 7.673 7.673 0 0 0 1.927-1.396 7.423 7.423 0 0 0 1.396-1.928c.374-.72.604-1.467.748-2.259.144-.791.187-1.582.216-2.374.014-.36.014-.734.014-1.093V17.324z" fill="url(#paint0_linear_1_24)"/><path fill-rule="evenodd" clip-rule="evenodd" d="M25.597 11.525c-.086.015-.863.144-.964.159L13.871 13.87a1.471 1.471 0 0 0-.677.302 1.116 1.116 0 0 0-.36.69c0 .072-.014.187-.014.374v13.468c0 .317-.029.619-.245.878-.215.259-.474.345-.79.403-.231.043-.476.1-.706.143-.892.173-1.467.303-1.985.504-.504.201-.878.446-1.18.748a2.827 2.827 0 0 0-.749 2.245c.072.676.375 1.31.893 1.799a2.85 2.85 0 0 0 1.309.676c.532.115 1.108.072 1.942-.101.446-.086.864-.23 1.252-.46.389-.23.734-.547.993-.921s.432-.792.532-1.238c.101-.46.115-.877.115-1.338V20.36c0-.633.173-.792.677-.907 0 0 8.95-1.798 9.367-1.885.575-.115.863.058.863.662v7.971c0 .317 0 .633-.216.892-.216.26-.475.346-.791.403-.23.044-.475.101-.705.144-.892.173-1.468.302-1.986.504-.503.201-.878.446-1.18.748a2.903 2.903 0 0 0-.777 2.245c.072.676.389 1.309.921 1.798.345.317.792.561 1.31.662.532.115 1.107.072 1.942-.1.446-.087.863-.216 1.252-.461.388-.23.733-.547.992-.92.26-.375.432-.792.533-1.238.1-.46.1-.878.1-1.338V12.49c0-.634-.33-1.008-.906-.965z" fill="#fff"/><defs><linearGradient id="paint0_linear_1_24" x1="18.103" y1="42.066" x2="18.103" y2="6.78" gradientUnits="userSpaceOnUse"><stop stop-color="#FA233B"/><stop offset="1" stop-color="#FB5C74"/></linearGradient></defs></svg>