<svg width="180" height="48" fill="none" xmlns="http://www.w3.org/2000/svg"><g clip-path="url(#clip0_1_70)"><path d="M37.86 13h3.442v8.247h.06c.936-1.562 2.9-2.53 4.651-2.53 4.922 0 7.309 3.875 7.309 8.593 0 4.342-2.114 8.435-6.735 8.435-2.114 0-4.38-.53-5.407-2.655h-.06v2.22h-3.262V13h.002zm7.701 8.53c-2.898 0-4.38 2.28-4.38 5.717 0 3.249 1.601 5.686 4.38 5.686 3.142 0 4.319-2.875 4.319-5.686-.003-2.937-1.482-5.718-4.32-5.718m34.434-2.813c-2.054 0-3.836 1.095-4.863 2.876l-.06-.063v-2.374H71.81v13.758c-1.963.021-2.147.021-2.296.021-.635 0-.816-.344-.816-1.219v-8.311c0-3.405-3.202-4.688-6.253-4.688-3.443 0-6.855 1.218-7.096 5.375h3.443c.152-1.75 1.51-2.562 3.443-2.562 1.39 0 3.232.345 3.232 2.188 0 2.093-2.205 1.813-4.68 2.282-2.9.342-6.01 1-6.01 5.028 0 3.157 2.536 4.718 5.344 4.718 1.843 0 4.047-.594 5.407-1.966.271 1.467 1.269 1.966 2.657 1.966.574 0 1.66-.218 7.046-.405v-.032h.022V25.78c0-2.375 1.48-4.25 3.776-4.25 2.023 0 2.99 1.093 3.05 3.624v10.154h3.445V24.217c.006-3.624-2.138-5.5-5.522-5.5m-14.74 11.155c0 2.25-2.355 3.062-3.864 3.062-1.209 0-3.173-.47-3.173-2.062 0-1.876 1.33-2.439 2.81-2.69 1.51-.28 3.172-.248 4.228-.967v2.658zm37.99 5.436h-3.262v-2.187h-.06c-.905 1.844-2.87 2.624-4.832 2.624-4.922 0-7.31-3.78-7.31-8.623 0-5.843 3.353-8.404 6.766-8.404 1.962 0 4.137.75 5.194 2.53h.062V13h3.442v22.308zm-7.701-2.374c3.08 0 4.38-2.906 4.38-5.719 0-3.56-1.66-5.686-4.32-5.686-3.231 0-4.379 2.968-4.379 5.874 0 2.905 1.329 5.53 4.32 5.53m21.382-8.372c-.272-1.968-1.661-3.032-3.564-3.032-1.783 0-4.289.969-4.289 5.875 0 2.687 1.147 5.53 4.137 5.53 1.994 0 3.382-1.376 3.715-3.689h3.442c-.634 4.186-3.141 6.5-7.158 6.5-4.892 0-7.581-3.592-7.581-8.341 0-4.75 2.567-8.686 7.702-8.686 3.624 0 6.706 1.874 7.036 5.843h-3.442.002zm39.267-5.845c-2.264 0-3.745 1.032-4.892 2.688-.695-1.843-2.477-2.688-4.38-2.688-2.477 0-3.775 1.095-4.802 2.688h-.09v-2.249h-3.264v13.758c-1.963.021-2.146.021-2.297.021-.634 0-.814-.344-.814-1.219v-8.311c0-3.405-3.202-4.688-6.253-4.688-3.442 0-6.855 1.218-7.097 5.375h3.444c.15-1.75 1.51-2.562 3.444-2.562 1.389 0 3.231.345 3.231 2.188 0 2.093-2.205 1.813-4.682 2.282-2.899.342-6.011 1-6.011 5.028 0 3.157 2.537 4.718 5.346 4.718 1.842 0 4.047-.594 5.406-1.966.273 1.467 1.268 1.966 2.659 1.966.572 0 1.66-.218 6.997-.405v-.032h.071v-9.59c0-2.686 1.631-4.188 3.413-4.188 2.083 0 2.748 1.187 2.748 3.407V35.31h3.443v-9.466c0-2.719.996-4.311 3.322-4.311 2.687 0 2.838 1.78 2.838 4.344v9.435h3.443V24.157c.003-3.937-1.93-5.437-5.22-5.437m-23.985 11.155c0 2.249-2.355 3.062-3.866 3.062-1.207 0-3.17-.47-3.17-2.063 0-1.875 1.329-2.438 2.809-2.689 1.511-.28 3.172-.249 4.229-.967v2.656h-.002zm32.318-10.72h3.263v2.187h.059c.967-1.843 2.84-2.624 4.833-2.624 4.923 0 7.309 3.875 7.309 8.593 0 4.342-2.115 8.435-6.735 8.435-1.994 0-4.139-.75-5.226-2.53h-.06v8.06h-3.444v-22.12h.001zm7.702 2.374c-2.899 0-4.38 2.282-4.38 5.718 0 3.249 1.601 5.686 4.38 5.686 3.141 0 4.318-2.875 4.318-5.686s-1.481-5.718-4.319-5.718" fill="#211F1F"/><path d="M25.823 35.26H0L12.06 13h25.823l-12.06 22.26z" fill="#6399A8"/></g><defs><clipPath id="clip0_1_70"><path fill="#fff" d="M0 0H180V48H0z"/></clipPath></defs></svg>