<svg width="127" height="48" fill="none" xmlns="http://www.w3.org/2000/svg"><path d="M19 5C8.507 5 0 13.507 0 24c0 10.494 8.507 19 19 19 10.495 0 19-8.506 19-19 0-10.493-8.505-19-19-19zm8.714 27.404a1.184 1.184 0 0 1-1.63.392c-4.46-2.725-10.076-3.342-16.69-1.83a1.185 1.185 0 0 1-.527-2.31c7.238-1.654 13.446-.942 18.454 2.119.558.342.735 1.07.393 1.629zm2.325-5.174a1.481 1.481 0 0 1-2.037.488c-5.107-3.139-12.893-4.048-18.933-2.214a1.483 1.483 0 0 1-1.85-.987 1.483 1.483 0 0 1 .989-1.848c6.9-2.093 15.478-1.08 21.344 2.525a1.48 1.48 0 0 1 .487 2.036zm.2-5.387c-6.124-3.637-16.227-3.972-22.074-2.197a1.777 1.777 0 1 1-1.031-3.401c6.711-2.038 17.869-1.644 24.919 2.541a1.777 1.777 0 1 1-1.813 3.057h-.001zm21.455.697c-3.281-.782-3.864-1.331-3.864-2.485 0-1.09 1.025-1.824 2.552-1.824 1.48 0 2.945.557 4.483 1.704a.21.21 0 0 0 .162.04.212.212 0 0 0 .143-.088l1.601-2.258a.216.216 0 0 0-.04-.292c-1.831-1.469-3.892-2.183-6.301-2.183-3.542 0-6.017 2.126-6.017 5.167 0 3.262 2.135 4.416 5.824 5.308 3.138.723 3.669 1.329 3.669 2.412 0 1.2-1.071 1.946-2.795 1.946-1.915 0-3.479-.646-5.226-2.157a.222.222 0 0 0-.156-.053.212.212 0 0 0-.148.075l-1.797 2.137a.216.216 0 0 0 .02.3c2.034 1.815 4.534 2.773 7.234 2.773 3.816 0 6.283-2.085 6.283-5.314.006-2.724-1.625-4.233-5.62-5.205l-.007-.003zm14.262-3.236c-1.654 0-3.011.652-4.132 1.987v-1.503a.214.214 0 0 0-.213-.215h-2.938a.214.214 0 0 0-.214.215v16.7c0 .118.096.215.214.215h2.938a.215.215 0 0 0 .213-.215v-5.271c1.121 1.255 2.478 1.87 4.132 1.87 3.074 0 6.187-2.367 6.187-6.89.005-4.526-3.108-6.893-6.185-6.893h-.002zm2.77 6.892c0 2.303-1.418 3.912-3.45 3.912-2.009 0-3.524-1.682-3.524-3.912s1.515-3.91 3.523-3.91c2-.001 3.451 1.644 3.451 3.91zm11.392-6.892c-3.959 0-7.06 3.049-7.06 6.941 0 3.851 3.08 6.866 7.013 6.866 3.972 0 7.083-3.037 7.083-6.915 0-3.864-3.09-6.891-7.036-6.891zm0 10.826c-2.105 0-3.694-1.692-3.694-3.935 0-2.253 1.534-3.887 3.647-3.887 2.119 0 3.716 1.691 3.716 3.936 0 2.253-1.543 3.886-3.669 3.886zm15.49-10.557h-3.233v-3.305a.214.214 0 0 0-.213-.215h-2.939a.216.216 0 0 0-.215.215v3.305h-1.411a.214.214 0 0 0-.214.215v2.525c0 .118.096.215.214.215h1.41v6.534c0 2.638 1.314 3.977 3.908 3.977 1.052 0 1.926-.218 2.75-.685a.21.21 0 0 0 .109-.186v-2.405a.214.214 0 0 0-.103-.182.209.209 0 0 0-.208-.009 3.707 3.707 0 0 1-1.725.415c-.941 0-1.363-.429-1.363-1.386v-6.072h3.233a.214.214 0 0 0 .213-.215V19.79a.208.208 0 0 0-.21-.216h-.003zm11.263.013v-.406c0-1.194.458-1.727 1.484-1.727.612 0 1.104.122 1.656.306a.213.213 0 0 0 .281-.205V15.08a.212.212 0 0 0-.152-.206 8.048 8.048 0 0 0-2.441-.351c-2.711 0-4.148 1.528-4.148 4.417v.621h-1.411a.216.216 0 0 0-.215.215v2.538c0 .118.097.215.215.215h1.411v10.075c0 .12.098.216.216.216h2.936c.12 0 .215-.096.215-.216V22.53h2.743l4.202 10.074c-.476 1.058-.946 1.269-1.586 1.269-.517 0-1.064-.155-1.62-.461a.233.233 0 0 0-.17-.016.217.217 0 0 0-.127.116l-.996 2.185a.215.215 0 0 0 .093.279c1.039.563 1.976.803 3.136.803 2.169 0 3.369-1.012 4.424-3.73l5.096-13.168a.212.212 0 0 0-.023-.2.21.21 0 0 0-.174-.093h-3.059a.215.215 0 0 0-.204.144l-3.133 8.947-3.431-8.953a.215.215 0 0 0-.2-.138h-5.018v-.001zm-6.53-.013h-2.938a.216.216 0 0 0-.216.215v12.815c0 .12.098.216.216.216h2.938a.215.215 0 0 0 .215-.216V19.79a.212.212 0 0 0-.133-.199.212.212 0 0 0-.082-.016zm-1.452-5.835a2.106 2.106 0 1 0-.003 4.213 2.106 2.106 0 0 0 .003-4.213zm25.733 9.956a2.06 2.06 0 0 1-2.066-2.068c0-1.134.916-2.078 2.078-2.078a2.06 2.06 0 0 1 2.067 2.066 2.08 2.08 0 0 1-2.079 2.08zm.012-3.94c-1.06 0-1.861.841-1.861 1.872 0 1.03.797 1.86 1.849 1.86 1.06 0 1.861-.84 1.861-1.872 0-1.03-.796-1.86-1.849-1.86zm.458 2.073l.585.819h-.494l-.526-.751h-.452v.75h-.413v-2.17h.967c.506 0 .837.259.837.693.002.356-.204.573-.502.659h-.002zm-.349-.98h-.538v.687h.538c.267 0 .429-.131.429-.343 0-.223-.162-.343-.429-.343z" fill="#1ED760"/></svg>