<svg width="24" height="24" viewBox="0 0 24 24" fill="none" xmlns="http://www.w3.org/2000/svg">
<path fill-rule="evenodd" clip-rule="evenodd" d="M11.6868 2C5.77726 2 1 6.81248 1 12.7662C1 17.5253 4.06096 21.5538 8.30731 22.9796C8.83822 23.0868 9.03269 22.7479 9.03269 22.4629C9.03269 22.2133 9.01519 21.3578 9.01519 20.4664C6.04239 21.1082 5.42333 19.183 5.42333 19.183C4.94558 17.9352 4.23771 17.6145 4.23771 17.6145C3.26471 16.955 4.30858 16.955 4.30858 16.955C5.38789 17.0263 5.95423 18.0601 5.95423 18.0601C6.90951 19.6999 8.44884 19.2366 9.06812 18.9513C9.1565 18.2561 9.43978 17.7749 9.74056 17.5076C7.36954 17.258 4.87492 16.3311 4.87492 12.1957C4.87492 11.0192 5.2993 10.0567 5.97173 9.30819C5.86564 9.04088 5.49398 7.93554 6.07804 6.45614C6.07804 6.45614 6.98038 6.17089 9.01497 7.56126C9.88605 7.32559 10.7844 7.20571 11.6868 7.2047C12.5891 7.2047 13.5089 7.3296 14.3584 7.56126C16.3932 6.17089 17.2955 6.45614 17.2955 6.45614C17.8796 7.93554 17.5077 9.04088 17.4016 9.30819C18.0917 10.0567 18.4986 11.0192 18.4986 12.1957C18.4986 16.3311 16.004 17.24 13.6153 17.5076C14.0046 17.8462 14.3406 18.4878 14.3406 19.5039C14.3406 20.9476 14.3231 22.1063 14.3231 22.4627C14.3231 22.7479 14.5178 23.0868 15.0485 22.9798C19.2949 21.5535 22.3558 17.5253 22.3558 12.7662C22.3733 6.81248 17.5786 2 11.6868 2Z" fill="#24292F"/>
</svg>
