<svg width="24" height="24" viewBox="0 0 24 24" fill="none" xmlns="http://www.w3.org/2000/svg">
<path d="M17.0587 11.7331C16.9683 11.6897 16.8764 11.648 16.7833 11.6081C16.6212 8.62137 14.9892 6.91148 12.249 6.89398C12.2365 6.89391 12.2242 6.89391 12.2118 6.89391C10.5727 6.89391 9.20956 7.59354 8.37053 8.86664L9.87761 9.90046C10.5044 8.9495 11.4881 8.74677 12.2125 8.74677C12.2209 8.74677 12.2293 8.74678 12.2375 8.74685C13.1398 8.7526 13.8207 9.01494 14.2614 9.52653C14.582 9.89899 14.7965 10.4137 14.9027 11.0632C14.1028 10.9273 13.2376 10.8855 12.3127 10.9385C9.70739 11.0886 8.03246 12.6081 8.14496 14.7194C8.20204 15.7904 8.73559 16.7118 9.64726 17.3137C10.4181 17.8225 11.4108 18.0713 12.4426 18.015C13.8052 17.9403 14.8741 17.4205 15.6198 16.4699C16.1861 15.748 16.5443 14.8125 16.7025 13.6338C17.3519 14.0257 17.8331 14.5414 18.0989 15.1613C18.5508 16.2151 18.5772 17.9469 17.1642 19.3587C15.9262 20.5955 14.438 21.1306 12.189 21.1471C9.69421 21.1286 7.80745 20.3285 6.58073 18.769C5.43201 17.3088 4.83834 15.1996 4.81619 12.5C4.83834 9.80038 5.43201 7.69118 6.58073 6.23092C7.80745 4.67147 9.69418 3.87141 12.1889 3.85287C14.7018 3.87155 16.6215 4.67547 17.8951 6.24244C18.5197 7.01086 18.9905 7.97721 19.3009 9.10394L21.067 8.63274C20.6907 7.24587 20.0987 6.05078 19.293 5.05966C17.6602 3.05073 15.2721 2.02134 12.1951 2H12.1828C9.11205 2.02127 6.7507 3.05457 5.16434 5.07117C3.75271 6.8657 3.02454 9.36265 3.00008 12.4926L3 12.5L3.00008 12.5074C3.02454 15.6373 3.75271 18.1343 5.16434 19.9289C6.7507 21.9454 9.11205 22.9788 12.1828 23H12.1951C14.9252 22.9811 16.8495 22.2663 18.4348 20.6825C20.5089 18.6103 20.4464 16.013 19.7628 14.4185C19.2724 13.2751 18.3373 12.3465 17.0587 11.7331ZM12.3451 16.1648C11.2032 16.2291 10.0169 15.7166 9.95839 14.6188C9.91504 13.8048 10.5377 12.8966 12.4151 12.7884C12.6301 12.776 12.8411 12.7699 13.0484 12.7699C13.7303 12.7699 14.3683 12.8362 14.9483 12.963C14.732 15.6648 13.463 16.1035 12.3451 16.1648Z" fill="black"/>
</svg>
